<?xml version="1.0" encoding="utf-8"?>
<!-- Generator: Adobe Illustrator 15.0.2, SVG Export Plug-In . SVG Version: 6.00 Build 0)  -->
<!DOCTYPE svg PUBLIC "-//W3C//DTD SVG 1.1//EN" "http://www.w3.org/Graphics/SVG/1.1/DTD/svg11.dtd">
<svg version="1.1"
	 id="svg3029" xmlns:dc="http://purl.org/dc/elements/1.1/" xmlns:cc="http://creativecommons.org/ns#" xmlns:rdf="http://www.w3.org/1999/02/22-rdf-syntax-ns#" xmlns:svg="http://www.w3.org/2000/svg" xmlns:sodipodi="http://sodipodi.sourceforge.net/DTD/sodipodi-0.dtd" xmlns:inkscape="http://www.inkscape.org/namespaces/inkscape" inkscape:version="0.48.1 r9760" sodipodi:docname="star.svg" inkscape:export-ydpi="90" inkscape:export-xdpi="90" inkscape:export-filename="/media/data/rails/paper/assets/starred.png"
	 xmlns="http://www.w3.org/2000/svg" xmlns:xlink="http://www.w3.org/1999/xlink" x="0px" y="0px" width="12px" height="12px"
	 viewBox="0 0 12 12" enable-background="new 0 0 12 12" xml:space="preserve">
<path id="path3045_3_" sodipodi:arg2="-0.92870456" sodipodi:arg1="-1.5570231" sodipodi:r2="2.6023974" sodipodi:r1="5.2047949" sodipodi:cy="5.749104" sodipodi:cx="5.734767" sodipodi:sides="5" sodipodi:type="star" inkscape:randomized="0" inkscape:rounded="0.1" inkscape:flatsided="false" inkscape:transform-center-y="-0.53785192" inkscape:transform-center-x="-0.023980318" fill="#FFFC00" d="
	M2,5.009c0.122-0.376-0.311-3.771,0-4c0.31-0.229,1.62,3.995,2,4"/>
<path id="path3045_2_" sodipodi:arg2="-0.92870456" sodipodi:arg1="-1.5570231" sodipodi:r2="2.6023974" sodipodi:r1="5.2047949" sodipodi:cy="5.749104" sodipodi:cx="5.734767" sodipodi:sides="5" sodipodi:type="star" inkscape:randomized="0" inkscape:rounded="0.1" inkscape:flatsided="false" inkscape:transform-center-y="-0.53785192" inkscape:transform-center-x="-0.023980318" fill="#FFFC00" d="
	M8,5.009c0.122-0.375,1.689-3.771,2-4c0.31-0.229,0.62,3.994,1,4"/>
<path id="path3045_1_" sodipodi:arg2="-0.92870456" sodipodi:arg1="-1.5570231" sodipodi:r2="2.6023974" sodipodi:r1="5.2047949" sodipodi:cy="5.749104" sodipodi:cx="5.734767" sodipodi:sides="5" sodipodi:type="star" inkscape:randomized="0" inkscape:rounded="0.1" inkscape:flatsided="false" inkscape:transform-center-y="-0.53785192" inkscape:transform-center-x="-0.023980318" fill="#FFFC00" d="
	M4,5.009c0.122-0.375,1.69-3.771,2-4s1.621,3.995,2,4"/>
<sodipodi:namedview  inkscape:zoom="69.75" borderopacity="1.0" bordercolor="#666666" showgrid="false" pagecolor="#ffffff" inkscape:cy="6" inkscape:cx="6" id="base" inkscape:window-y="24" inkscape:window-x="0" inkscape:window-height="1026" inkscape:window-width="1680" inkscape:current-layer="layer1" inkscape:document-units="px" inkscape:pageshadow="2" inkscape:pageopacity="0.0" inkscape:window-maximized="1">
	</sodipodi:namedview>
<g id="layer1" transform="translate(0,-1040.3622)" inkscape:groupmode="layer" inkscape:label="Layer 1">
	
		<path id="path3045" sodipodi:arg2="-0.92870456" sodipodi:arg1="-1.5570231" sodipodi:r2="2.6023974" sodipodi:r1="5.2047949" sodipodi:cy="5.749104" sodipodi:cx="5.734767" sodipodi:sides="5" sodipodi:type="star" inkscape:randomized="0" inkscape:rounded="0.1" inkscape:flatsided="false" inkscape:transform-center-y="-0.53785192" inkscape:transform-center-x="-0.023980318" fill="#FFFC00" stroke="#BC890F" stroke-width="1" stroke-linejoin="round" d="
		M6,1045.362c0.379,0.005,1.695-4.238,2-4c0.304,0.238,1.387,3.621,1.5,4c0.111,0.379,1.622-4.375,1.5-4
		c-0.123,0.376-0.689,8.771-1,9c-0.311,0.229-0.5,1-4,1s-3.696-0.762-4-1c-0.304-0.237-0.888-8.621-1-9s1.378,4.376,1.5,4
		c0.122-0.375,1.19-3.771,1.5-4S5.621,1045.357,6,1045.362z"/>
</g>
</svg>
