<?xml version="1.0" encoding="utf-8"?>
<!-- Generator: Adobe Illustrator 15.0.2, SVG Export Plug-In . SVG Version: 6.00 Build 0)  -->
<!DOCTYPE svg PUBLIC "-//W3C//DTD SVG 1.1//EN" "http://www.w3.org/Graphics/SVG/1.1/DTD/svg11.dtd">
<svg version="1.1"
	 id="svg3029" xmlns:dc="http://purl.org/dc/elements/1.1/" xmlns:cc="http://creativecommons.org/ns#" xmlns:rdf="http://www.w3.org/1999/02/22-rdf-syntax-ns#" xmlns:svg="http://www.w3.org/2000/svg" xmlns:sodipodi="http://sodipodi.sourceforge.net/DTD/sodipodi-0.dtd" xmlns:inkscape="http://www.inkscape.org/namespaces/inkscape" inkscape:version="0.48.1 r9760" sodipodi:docname="star.svg" inkscape:export-ydpi="90" inkscape:export-xdpi="90" inkscape:export-filename="/media/data/rails/paper/assets/starred.png"
	 xmlns="http://www.w3.org/2000/svg" xmlns:xlink="http://www.w3.org/1999/xlink" x="0px" y="0px" width="12px" height="12px"
	 viewBox="0 0 12 12" enable-background="new 0 0 12 12" xml:space="preserve">
<sodipodi:namedview  inkscape:zoom="69.75" borderopacity="1.0" bordercolor="#666666" showgrid="false" pagecolor="#ffffff" inkscape:cy="6" inkscape:cx="6" id="base" inkscape:window-y="24" inkscape:window-x="0" inkscape:window-height="1026" inkscape:window-width="1680" inkscape:current-layer="layer1" inkscape:document-units="px" inkscape:pageshadow="2" inkscape:pageopacity="0.0" inkscape:window-maximized="1">
	</sodipodi:namedview>
<g>
	<path fill="#FF0000" stroke="#BC0F0F" stroke-width="1" stroke-linejoin="round" d="M10.177,0.77
		c0.111-0.005,0.222-0.021,0.332-0.012C10.389,0.743,10.28,0.751,10.177,0.77z"/>
	<path fill="#FF0000" stroke="#BC0F0F" stroke-width="1" stroke-linejoin="round" d="M10.574,8.612
		c-0.335-0.365-0.715-0.686-1.113-0.981C8.795,7.135,8.11,6.654,7.466,6.128C7.86,6.449,9.007,4.73,9.172,4.499
		c0.553-0.773,0.921-2.21,1.85-2.576C9.767,2.418,8.84,3.749,7.402,3.98c0.76-0.142,1.223-0.755,1.589-1.375
		C9.313,2.058,9.427,1.359,9.952,0.95C9.594,1.057,9.204,1.046,8.844,1.156c-1.062,0.323-1.877,1.305-2.637,2.05
		C5.994,3.415,5.77,3.62,5.541,3.823C4.698,2.517,3.744,1.145,2.06,1.25C1.393,1.292,0.82,1.716,0.869,2.408
		c0.055,0.771,0.654,1.291,1.19,1.771c0.507,0.454,0.98,0.927,1.454,1.401C2.609,6.399,1.777,7.278,1.249,8.317
		C0.947,8.912,0.28,10.563,1.28,10.927C2.72,11.45,3.682,9.149,4.327,8.326c0.276-0.354,0.612-0.658,0.979-0.934
		c0.101,0.102,0.198,0.204,0.299,0.306C6.094,8.189,6.584,8.687,7.159,9.08c0.937,0.641,2.278,1.117,2.839,2.17
		C9.686,10.737,9.029,8.919,8.52,8.666c0.878,0.436,1.769,0.635,2.73,0.786C11.092,9.428,10.708,8.759,10.574,8.612z"/>
</g>
</svg>
